<svg width="409" height="455" fill="none" xmlns="http://www.w3.org/2000/svg"><g clip-path="url(#clip0_339_606)" fill="#fff" stroke="#fff" stroke-width=".2"><path d="M398.526 762.1h.1v-.004c95.724-.026 185.716-37.212 253.406-104.713l40.282-40.169.071-.071-.071-.071-.593-.591-.071-.071-.07.071-40.282 40.169c-67.521 67.327-157.286 104.407-252.772 104.407-95.485 0-185.254-37.08-252.771-104.407l-40.282-40.165c-139.373-138.987-139.377-365.138 0-504.125l52.529-52.381.071-.071-.071-.071-.593-.592-.071-.07-.07.07-52.529 52.382c-139.784 139.392-139.784 366.199 0 505.595l40.282 40.165C212.735 724.911 302.765 762.1 398.526 762.1z"/><path d="M398.526 710.44h.241l-.004-.004c81.83-.063 158.758-31.871 216.63-89.581l.071-.071-.071-.07-.593-.592-.071-.07-.07.07c-57.736 57.569-134.492 89.275-216.137 89.275-81.644 0-158.405-31.706-216.136-89.275l-40.282-40.165c-119.175-118.845-119.175-312.219 0-431.065L290.75.662l.071-.07-.071-.071-.593-.592-.071-.07-.07.07-148.642 148.23c-119.586 119.251-119.586 313.285 0 432.535l40.282 40.165c57.928 57.766 134.946 89.581 216.87 89.581z"/><path d="M398.527 658.776h.33l-.013-.009c67.96-.085 131.845-26.518 179.91-74.448l147.557-147.143.071-.071-.071-.071-.593-.591-.071-.071-.07.071L578.02 583.586c-47.946 47.811-111.698 74.142-179.502 74.142-67.803 0-131.552-26.331-179.501-74.142l-40.283-40.165c-98.977-98.7-98.977-259.301 0-358.001L344.066 20.556l.071-.07-.071-.072-.593-.591-.071-.07-.07.07-165.328 164.868c-99.383 99.105-99.383 260.362 0 359.471l40.282 40.166c48.147 48.007 112.157 74.448 180.241 74.448z"/><path d="M347.469 88.906l-.07-.07-.071.07-132.685 132.313c-79.186 78.964-79.186 207.447 0 286.411l40.278 40.165c38.357 38.25 89.359 59.317 143.605 59.317 54.247 0 105.249-21.067 143.606-59.317l198.651-198.094.071-.071-.071-.071-.593-.591-.071-.071-.07.071-198.651 198.094c-38.164 38.053-88.901 59.011-142.872 59.011-53.97 0-104.707-20.962-142.871-59.015l-40.278-40.165c-78.775-78.558-78.775-206.382 0-284.941L348.062 89.639l.071-.07-.071-.072-.593-.591z"/><path d="M398.526 555.452h.1v-.005c40.368-.026 78.319-15.715 106.871-44.184L752.07 265.381l.071-.071-.071-.07-.593-.592-.07-.07-.071.07L504.763 510.53c-28.379 28.299-66.107 43.883-106.237 43.883-40.129 0-77.858-15.584-106.236-43.883l-40.278-40.165c-58.577-58.413-58.577-153.464 0-211.877L446.359 64.69l.071-.07-.071-.072-.593-.591-.071-.07-.07.07-194.348 193.798c-58.983 58.819-58.983 154.525 0 213.348l40.278 40.165c28.572 28.491 66.562 44.184 106.971 44.184z"/><path d="M398.527 503.787l.001-.004c26.569-.002 51.542-10.32 70.331-29.052l265.795-265.05.071-.071-.071-.07-.593-.592-.071-.07-.071.07-265.795 265.05c-18.589 18.541-43.309 28.75-69.602 28.75-26.292 0-51.008-10.209-69.601-28.75l-40.278-40.165c-38.38-38.272-38.38-100.545 0-138.817l110.926-110.611.071-.071-.071-.071-.593-.591-.071-.071-.07.071-110.927 110.611c-38.786 38.673-38.786 101.606 0 140.283l40.278 40.165c18.791 18.738 43.772 29.056 70.341 29.056z"/><path d="M398.527 452.102h.161l-.004-.009c12.151-.04 24.293-4.673 33.544-13.898l306.78-305.92.071-.071-.071-.071-.593-.591-.071-.071-.07.071-306.78 305.92c-18.178 18.126-47.761 18.126-65.939 0l-40.282-40.169-.07.07.07-.07c-8.807-8.779-13.656-20.458-13.656-32.875 0-12.416 4.849-24.091 13.656-32.874l147.195-146.783.071-.07-.071-.071-.593-.592-.07-.07-.071.07-147.195 146.783c-9.005 8.98-13.963 20.915-13.963 33.612 0 12.696 4.958 24.636 13.963 33.611l40.282 40.17c9.292 9.265 21.501 13.898 33.706 13.898z"/></g><defs><clipPath id="clip0_339_606"><path fill="#fff" d="M0 0h752v762H0z"/></clipPath></defs></svg>