<svg width="152" height="118" fill="none" xmlns="http://www.w3.org/2000/svg"><g clip-path="url(#clip0_48_1086)" fill="#fff"><path d="M18.913 86.184v-.492h.583c3.808 0 4.212-.404 4.212-2.017V57.827c0-1.613-.672-2.017-4.212-2.017h-.583v-.493H32.49v.493h-.762c-3.54 0-4.122.404-4.122 2.061v12.636h14.333V57.87c0-1.657-.717-2.06-4.122-2.06h-.762v-.494h13.577v.493h-.583c-3.719 0-4.212.404-4.212 2.017v25.848c0 1.613.27 2.017 4.212 2.017h.583v.492H37.055v-.492h.762c3.898 0 4.122-.404 4.122-2.062V71.044H27.606V83.63c0 1.658.627 2.062 4.122 2.062h.762v.492H18.913z"/><path d="M53.907 75.122c-.045.493-.045.896-.045 1.747 0 7.259 3.047 8.778 5.78 8.778s4.66-1.255 6.273-3.854l.358.224c-1.389 2.689-3.54 4.66-7.258 4.66-5.108 0-8.737-3.898-8.737-9.678 0-5.78 4.122-9.897 8.378-9.897 5.153 0 7.259 3.629 7.707 8.02H53.907zm.045-.583h8.692c-.358-4.077-1.255-6.9-4.032-6.9-2.778 0-4.212 1.882-4.66 6.9zm19.222 12.139c-2.375 0-4.75-1.613-4.75-4.615 0-4.66 4.077-5.466 11.107-6.587v-4.122c0-2.599-.806-3.719-4.256-3.719-1.882 0-3.36.807-3.316 1.39.135 1.343 1.748 2.24 1.748 3.584 0 .94-.717 1.702-1.748 1.702-1.434 0-2.285-1.344-2.285-2.867 0-1.972 1.613-4.346 6.318-4.346 4.704 0 6.676 2.106 6.676 5.556v9.14c0 2.061.762 2.644 1.613 2.644 1.434 0 2.061-.762 2.195-4.123h.448c.09 4.302-1.344 6.184-3.718 6.184-2.375 0-3.271-1.792-3.585-3.854-.851 1.479-2.464 4.033-6.452 4.033h.005zm1.837-1.523c2.957 0 4.525-2.151 4.525-4.93v-4.3c-6.587 1.03-7.886 2.509-7.886 5.018 0 2.733 1.479 4.212 3.36 4.212z"/><path d="M86.84 86.184v-.448h.358c2.599 0 3.002-.403 3.002-1.792v-26.79c0-1.568-.717-1.792-3.585-1.747v-.448l6.721-.448v29.478c0 1.254.448 1.747 2.285 1.747h1.39v.448H86.84zm18.684.538c-1.658 0-5.064-1.075-5.064-4.749v-13.84h-3.405v-.628h3.405v-7.482h3.137v7.482h5.421v.627h-5.421V81.75c0 2.912 1.254 3.719 3.047 3.719 2.33 0 3.495-1.3 3.495-4.391h.492c-.044 3.54-1.568 5.645-5.107 5.645zm11.959-15.544c.985-1.792 2.643-4.077 6.138-4.077 3.226 0 5.914 2.15 5.914 5.242v11.83c0 1.03.404 1.567 2.285 1.567h1.165v.449h-9.857v-.448h.359c2.643 0 2.912-.404 2.912-1.793V72.08c0-2.867-1.165-3.764-3.405-3.764-3.63 0-5.511 3.002-5.511 4.526v11.336c0 1.389.313 1.568 2.643 1.568h.627v.448h-9.543v-.448h.134c2.509 0 3.002-.403 3.002-1.792v-26.61c0-1.39-.224-2.017-3.405-1.927v-.448l6.542-.449v16.664-.005zM40.51 117.549v-12.55h8.66v2.133h-6.259v3.405h4.804v2.151H42.91v4.857h-2.4v.004zm17.39.215c-3.334 0-5.633-2.51-5.633-6.475s2.294-6.506 5.645-6.506c3.352 0 5.633 2.509 5.633 6.475 0 3.965-2.312 6.506-5.646 6.506zm0-10.902c-1.9 0-3.173 1.667-3.173 4.391s1.29 4.427 3.19 4.427 3.172-1.667 3.172-4.391-1.29-4.427-3.19-4.427zm12.361 10.687H67.86v-12.55h4.588c3.262 0 4.839 1.308 4.839 3.656s-1.631 3.316-3.226 3.764c.77.305 1.2.717 1.828 1.685l2.437 3.441h-2.85l-2.025-3.029c-.645-.932-1.236-1.291-2.294-1.291h-.896v4.324zm1.667-6.403c1.774 0 2.904-.788 2.904-2.168 0-1.219-.79-1.882-2.528-1.882h-2.043v4.05h1.667zm14.804 6.6c-2.957 0-4.983-1.613-4.983-5.108v-7.639h2.42v7.729c0 2.007 1.093 2.957 2.599 2.957 1.505 0 2.599-.95 2.599-2.939v-7.747h2.383v7.639c0 3.495-2.043 5.108-5.018 5.108zm20.956-9.844l-3.208 9.665h-2.348l-3.19-9.7-.448 9.682h-2.259l.645-12.55h3.37l3.083 9.485 3.1-9.485h3.423l.646 12.55h-2.384l-.43-9.647zm34.89-68.159H8.16v.56h134.418v-.56zM79.133 25.728c-1.34 0-2.142-.592-2.733-1.017-.323-.27-.592-.43-.856-.43-.43 0-.91.107-1.232 1.34h-.43v-8.47h.537c.43 4.773 2.196 7.77 4.664 7.77 1.663 0 2.787-1.5 2.787-4.234 0-2.733-1.93-4.821-3.965-6.914-2.088-2.195-4.288-4.449-4.288-7.715C73.671 2.63 75.441 0 78.546 0c1.232 0 1.877.484 2.357.856.322.269.591.43.91.43.483 0 .801-.376 1.016-1.178h.43v8.468h-.537c-.43-4.234-1.555-7.77-4.234-7.77-1.824 0-2.196 1.824-2.196 3.11 0 2.518 1.716 4.288 3.589 6.16 2.195 2.25 4.61 4.719 4.61 8.895.054 3.912-2.087 6.752-5.358 6.752v.005zM53.244 3.54c-.484-2.196-.592-2.518-1.286-2.733L51.42.645V.112h6.537V.65l-.537.108c-1.179.268-1.071 1.447-.749 3.055l2.895 14.468 2.142-11.524-.749-3.965c-.322-1.394-.43-1.824-1.124-2.039L59.35.645V.112h6.752V.65L65.3.811c-1.232.215-1.017 1.555-.748 3.002l2.787 14.468 2.787-13.666c.537-2.84.269-3.535-.856-3.75l-.748-.161V.166h4.664v.538l-.538.161c-.748.269-.91.963-1.447 3.378l-4.503 21.49h-.963L62.254 8.957l-3.11 16.776h-1.231L53.248 3.544l-.004-.004zm36.822 22.188c3.055 0 5.036-2.088 5.036-6.004V2.415c0-1.017.269-1.34 1.017-1.554l.802-.216V.112h-7.29V.65l.91.215c.802.161 1.124.484 1.124 1.501v17.9c0 1.985 0 4.61-2.088 4.61-1.178 0-2.088-1.016-2.038-1.715.053-.484.43-.749.91-1.071.59-.377 1.231-.802 1.285-1.824.108-1.286-.694-1.877-1.501-1.985-1.125-.161-2.572.802-2.572 2.733 0 2.465 1.609 4.719 4.396 4.719l.009-.005z"/></g><defs><clipPath id="clip0_48_1086"><path fill="#fff" d="M0 0h151.111v117.744H0z"/></clipPath></defs></svg>