<svg width="25" height="25" fill="none" xmlns="http://www.w3.org/2000/svg"><path d="M22.852 7.813H2.148a.588.588 0 01-.586-.586V5.469a2.344 2.344 0 012.344-2.344H6.25V.585c0-.321.264-.585.586-.585h1.953c.322 0 .586.264.586.586v2.539h6.25V.585c0-.321.264-.585.586-.585h1.953c.322 0 .586.264.586.586v2.539h2.344a2.344 2.344 0 012.343 2.344v1.758a.588.588 0 01-.585.585zM2.148 9.374h20.704c.322 0 .585.264.585.586v12.695A2.344 2.344 0 0121.095 25H3.906a2.344 2.344 0 01-2.344-2.344V9.961c0-.322.264-.586.586-.586zm15.43 6.836a.588.588 0 00-.586-.586h-2.93v-2.93a.588.588 0 00-.585-.586h-1.954a.588.588 0 00-.585.586v2.93h-2.93a.588.588 0 00-.586.586v1.953c0 .322.264.586.586.586h2.93v2.93c0 .322.263.586.585.586h1.954a.588.588 0 00.585-.586v-2.93h2.93a.588.588 0 00.586-.586V16.21z" fill="#000"/></svg>