<svg xmlns="http://www.w3.org/2000/svg" viewBox="0 0 197.5 52.3"><style>.st0{fill:#231f20}</style><g id="art"><path class="st0" d="M84.3 46.5V31.2H94v1h-8.6v6.5h6.5v1h-6.5v6.8h-1.1zm24.9.2c-3.7 0-6.4-3.3-6.4-7.9 0-4.6 2.7-7.9 6.5-7.9 3.7 0 6.4 3.3 6.4 7.9s-2.8 7.9-6.5 7.9zm0-14.8c-3.1 0-5.3 2.9-5.3 6.9s2.2 7 5.4 7c3.1 0 5.3-2.9 5.3-6.9 0-4.1-2.2-7-5.4-7zm18.5 14.6h-1.1V31.2h5c3.3 0 5.1 1.6 5.1 4.2 0 2.9-2.3 4.1-4.5 4.6.9.3 1.4.8 2.2 1.9l3.8 4.6h-1.4l-3.4-4.2c-1.1-1.4-1.9-2-3.5-2h-2.3v6.2zm2.8-7.2c3 0 5.2-1.5 5.2-3.9 0-2.1-1.4-3.3-4.1-3.3h-3.8v7.2h2.7zm22.9 7.4c-3.3 0-5.4-2.3-5.4-6.1v-9.5h1.1v9.4c0 3.3 1.8 5.1 4.4 5.1 2.6 0 4.4-1.9 4.4-5.1V31h1.1v9.5c-.1 3.9-2.3 6.2-5.6 6.2zm31-14l-5.8 13.8h-1l-5.8-13.8-.6 13.8h-1.1l.8-15.3h1.4l5.8 14 5.8-14h1.4l.7 15.3h-1l-.6-13.8zM7.8 11.9c-.8-3.4-.9-4-2-4.3L5 7.4v-.8h10.2v.8l-.9.2c-1.8.4-1.7 2.3-1.2 4.7L17.8 35l3.3-18-1.2-6.2c-.5-2.2-.6-2.9-1.8-3.2l-.8-.2v-.8h10.6v.8l-1.3.2c-1.9.3-1.6 2.4-1.2 4.7L29.9 35l4.3-21.4c.8-4.5.4-5.6-1.3-6l-1.2-.2v-.8H39v.8l-.8.3c-1.1.4-1.4 1.5-2.2 5.3l-7.1 33.6h-1.5L22 20.4l-4.9 26.2h-1.9L7.8 11.9zm40.5 34.8c-3.4 0-4.5-2.3-5.6-2.3-.6 0-1.4.2-2 2.1H40V33.2h.9c.7 7.5 3.5 12.1 7.3 12.1 2.6 0 4.4-2.4 4.4-6.6 0-9-12.9-12.9-12.9-22.9 0-5.4 2.7-9.5 7.6-9.5 3.2 0 3.8 2.1 5.1 2.1.8 0 1.3-.6 1.6-1.8h.7v13.2h-.9c-.7-6.6-2.4-12.1-6.6-12.1-2.9 0-3.4 2.9-3.4 4.9 0 8.6 12.9 11.6 12.9 23.6.1 6-3.3 10.5-8.4 10.5m24.1-9.5c0 6.2-3.1 9.4-7.9 9.4-4.3 0-6.9-3.5-6.8-7.4.1-3 2.3-4.5 4-4.3 1.3.2 2.5 1.1 2.4 3.1-.2 2.9-3.3 2.8-3.4 4.6-.1 1.1 1.3 2.7 3.2 2.7 3.2 0 3.2-4.1 3.2-7.2v-28c0-1.6-.5-2.1-1.8-2.4l-1.4-.3v-.8h11.4v.8l-1.3.4c-1.2.3-1.6.8-1.6 2.4v27zM82 23.8h.3c1.9 0 2.2-.2 2.2-1.2V8.5c0-.9-.4-1.2-2.2-1.2H82v-.8h8.5v.8H90c-1.8 0-2.1.2-2.1 1.2v6.7h7.5V8.5c0-1-.4-1.2-2.1-1.2h-.4v-.8h8.5v.8h-.4c-1.6 0-2.2.2-2.2 1.2v14.2c0 .9.2 1.2 2.2 1.2h.3v.8h-8.5v-.8h.4c2 0 2.1-.2 2.1-1.2V16h-7.5v6.6c0 1 .4 1.2 2.1 1.2h.4v.8H82v-.8zm26.3-1.2c0 1 .6 1.3 2.6 1.2l2.2-.1c.7-.1 3.4-2.4 4.8-5.2l.5.1-1 6h-15v-.8h.3c1.9 0 2.2-.2 2.2-1.4V8.5c0-.9-.4-1.2-2.2-1.2h-.3v-.8h14.3l.9 6.1-.5.1c-1.8-3.9-3.5-5.5-4.9-5.5h-2.5c-1.3 0-1.5.2-1.5.9v7h1.8c1.9 0 2.2-1 2.8-3.8h.5v8.3h-.5c-.5-3.3-.8-3.8-2.8-3.8h-1.8v6.8zm13.5-1.1c-.7 1.8-.6 2.2 1.8 2.4h.8v.8h-6.3v-.8c1.8-.1 1.9-.3 2.7-2.2l6-15.6h.6l6.4 16.1c.5 1.3.7 1.5 2.1 1.6l.7.1v.8h-9.3v-.8h.6c2.9 0 2.8-.4 2.3-1.8l-1.7-4.3h-5.2l-1.5 3.7zm4-10.6l-2.3 6h4.6l-2.3-6z"/><path class="st0" d="M136.5 23.8h.3c1.9 0 2.2-.2 2.2-1.4V8.5c0-.9-.4-1.2-2.2-1.2h-.3v-.8h8.6v.8h-.8c-1.6 0-1.9.2-1.9.9v14.1c0 1 .3 1.5 2.6 1.5l1.8-.1c.7-.1 3.6-2.5 5.1-5.5l.5.1-1.1 6.3h-14.9v-.8zm18.5 0h.6c1.9 0 2.2-.2 2.2-1.2V8.2c0-.7-.1-.9-.7-.9-.3 0-1.2.1-1.2.1-1.4.1-3.1 2.7-4.4 5.4l-.5-.1.9-6.1h15.3l.9 6.1-.5.1c-1.6-3.3-3-5.4-4.7-5.4h-.9c-.7 0-.8.2-.8.9v14.5c0 1 .4 1.2 2 1.2h.7v.8h-9v-1zm13.9 0h.3c1.9 0 2.2-.2 2.2-1.2V8.5c0-.9-.4-1.2-2.2-1.2h-.3v-.8h8.5v.8h-.4c-1.8 0-2.1.2-2.1 1.2v6.7h7.5V8.5c0-1-.4-1.2-2.1-1.2h-.4v-.8h8.5v.8h-.3c-1.6 0-2.2.2-2.2 1.2v14.2c0 .9.2 1.2 2.2 1.2h.3v.8h-8.5v-.8h.4c2 0 2.1-.2 2.1-1.2V16h-7.5v6.6c0 1 .4 1.2 2.1 1.2h.4v.8h-8.5v-.8z"/></g></svg>