<svg width="179" height="74" fill="none" xmlns="http://www.w3.org/2000/svg"><path d="M69.95 38.8v-.47h.555c3.636 0 4.02-.384 4.02-1.922V11.724c0-1.538-.64-1.922-4.02-1.922h-.554v-.47H82.91v.47h-.73c-3.38 0-3.934.384-3.934 1.967v12.065h13.688V11.769c0-1.583-.685-1.967-3.936-1.967h-.729v-.47h12.96v.47h-.555c-3.55 0-4.02.384-4.02 1.922v24.68c0 1.538.255 1.922 4.02 1.922h.555v.47h-12.96v-.47H88c3.72 0 3.934-.384 3.934-1.967v-12.02H78.246v12.02c0 1.583.599 1.968 3.935 1.968h.729v.469H69.95v.005z" fill="#000"/><path d="M103.363 28.238c-.045.47-.045.854-.045 1.668 0 6.93 2.911 8.384 5.518 8.384 2.607 0 4.45-1.198 5.988-3.68l.34.214c-1.328 2.567-3.381 4.45-6.931 4.45-4.874 0-8.34-3.72-8.34-9.239 0-5.518 3.935-9.453 8-9.453 4.919 0 6.931 3.466 7.356 7.656h-11.89.004zm.045-.555h8.299c-.344-3.89-1.198-6.587-3.85-6.587s-4.02 1.798-4.449 6.587zm18.347 11.587c-2.267 0-4.534-1.543-4.534-4.405 0-4.45 3.89-5.218 10.607-6.287v-3.935c0-2.482-.769-3.55-4.065-3.55-1.798 0-3.206.768-3.166 1.323.13 1.283 1.668 2.137 1.668 3.42 0 .9-.684 1.629-1.668 1.629-1.368 0-2.182-1.284-2.182-2.737 0-1.883 1.538-4.15 6.032-4.15s6.372 2.012 6.372 5.303v8.73c0 1.967.729 2.521 1.539 2.521 1.368 0 1.967-.729 2.097-3.935h.429c.085 4.105-1.283 5.903-3.55 5.903-2.268 0-3.122-1.713-3.421-3.68-.814 1.413-2.352 3.85-6.158 3.85zm1.753-1.454c2.822 0 4.32-2.052 4.32-4.704v-4.105c-6.287.984-7.531 2.397-7.531 4.79 0 2.606 1.414 4.02 3.207 4.02h.004z" fill="#000"/><path d="M134.808 38.8v-.429h.34c2.482 0 2.866-.384 2.866-1.712V11.085c0-1.498-.684-1.713-3.42-1.668v-.43l6.416-.428v28.144c0 1.199.43 1.668 2.183 1.668h1.328v.43h-9.713zm17.838.513c-1.583 0-4.834-1.028-4.834-4.534V21.561h-3.251v-.6h3.251v-7.14h2.996v7.14h5.173v.6h-5.173v13.004c0 2.78 1.198 3.55 2.906 3.55 2.223 0 3.336-1.239 3.336-4.19h.47c-.045 3.38-1.498 5.388-4.874 5.388zm11.42-14.84c.939-1.712 2.522-3.895 5.858-3.895 3.081 0 5.648 2.053 5.648 5.004v11.291c0 .984.384 1.498 2.182 1.498h1.114v.43h-9.413v-.43h.344c2.522 0 2.781-.384 2.781-1.712V25.323c0-2.737-1.113-3.595-3.251-3.595-3.465 0-5.263 2.866-5.263 4.32v10.82c0 1.329.3 1.499 2.522 1.499h.599v.43h-9.108v-.43h.129c2.397 0 2.867-.385 2.867-1.713V11.255c0-1.324-.215-1.923-3.251-1.838v-.43l6.247-.428v15.914h-.005zM71.619 68.748V56.764h8.268v2.034h-5.974v3.256H78.5v2.052h-4.588v4.642h-2.294zm16.603.204c-3.184 0-5.375-2.397-5.375-6.18s2.191-6.215 5.393-6.215 5.375 2.396 5.375 6.18c0 3.783-2.209 6.215-5.393 6.215zm0-10.41c-1.815 0-3.032 1.592-3.032 4.194 0 2.603 1.234 4.23 3.046 4.23 1.81 0 3.031-1.591 3.031-4.194 0-2.602-1.234-4.23-3.045-4.23zm11.805 10.206h-2.294V56.764h4.382c3.117 0 4.624 1.247 4.624 3.492s-1.556 3.166-3.081 3.595c.738.291 1.149.684 1.749 1.61l2.329 3.287h-2.723l-1.936-2.893c-.617-.89-1.181-1.235-2.191-1.235h-.854v4.128h-.005zm1.592-6.113c1.695 0 2.773-.751 2.773-2.07 0-1.163-.752-1.798-2.415-1.798h-1.95v3.868h1.592zm14.135 6.305c-2.826 0-4.758-1.543-4.758-4.88v-7.292h2.312v7.378c0 1.918 1.042 2.826 2.482 2.826 1.44 0 2.482-.908 2.482-2.808v-7.396h2.276v7.293c0 3.34-1.95 4.878-4.794 4.878zm20.007-9.4l-3.064 9.23h-2.244l-3.046-9.261-.429 9.243h-2.155l.617-11.984h3.219l2.947 9.055 2.961-9.055h3.268l.617 11.984h-2.276l-.411-9.212h-.004z" fill="#000"/><path d="M57.448 2.445h-.537v68.453h.537V2.445z" fill="#221F1F"/><path d="M26.052 39.001c-1.261 0-2.017-.554-2.571-.957-.304-.25-.555-.402-.805-.402-.403 0-.859.103-1.158 1.26h-.403v-7.959h.506c.402 4.485 2.066 7.307 4.382 7.307 1.56 0 2.62-1.413 2.62-3.98s-1.815-4.534-3.73-6.502c-1.962-2.066-4.033-4.18-4.033-7.257.05-3.224 1.713-5.693 4.637-5.693 1.159 0 1.762.452 2.218.805.305.25.555.403.859.403.452 0 .756-.354.957-1.11h.402v7.96h-.505c-.402-3.98-1.462-7.306-3.98-7.306-1.712 0-2.066 1.712-2.066 2.924 0 2.37 1.615 4.034 3.377 5.795 2.065 2.115 4.333 4.436 4.333 8.367.049 3.68-1.963 6.35-5.04 6.35V39zM1.713 18.137c-.452-2.066-.555-2.37-1.208-2.572L0 15.415v-.506h6.149v.506l-.506.102c-1.109.25-1.006 1.36-.706 2.871L7.66 31.994 9.677 21.16l-.707-3.73c-.304-1.31-.402-1.712-1.06-1.914l-.451-.102v-.506h6.35v.506l-.756.152c-1.158.2-.957 1.462-.707 2.821l2.62 13.607 2.621-12.851c.506-2.67.25-3.327-.805-3.528l-.706-.152v-.506h4.382v.506l-.505.152c-.707.25-.859.908-1.36 3.175L14.36 38.997h-.908l-3.273-15.771-2.925 15.771H6.095l-4.382-20.86zm34.62 20.864c2.87 0 4.735-1.963 4.735-5.643V17.08c0-.957.25-1.261.957-1.462l.756-.202v-.505h-6.855v.505l.858.202c.756.152 1.06.451 1.06 1.413v16.831c0 1.865 0 4.333-1.963 4.333-1.11 0-1.963-.957-1.914-1.614.05-.452.403-.707.859-1.006.554-.354 1.158-.756 1.207-1.713.103-1.207-.653-1.762-1.413-1.865-1.06-.152-2.42.756-2.42 2.572 0 2.316 1.512 4.436 4.133 4.436V39z" fill="#000"/></svg>