<svg width="409" height="455" viewBox="0 0 409 455" fill="none" xmlns="http://www.w3.org/2000/svg">
<g clip-path="url(#clip0_339_606)">
<path d="M398.526 762.1H398.626V762.096C494.35 762.07 584.342 724.884 652.032 657.383L692.314 617.214L692.385 617.143L692.314 617.072L691.721 616.481L691.65 616.41L691.58 616.481L651.298 656.65C583.777 723.977 494.012 761.057 398.526 761.057C303.041 761.057 213.272 723.977 145.755 656.65L105.473 616.485C-33.8998 477.498 -33.904 251.347 105.473 112.36L158.002 59.9786L158.073 59.9078L158.002 59.837L157.409 59.2455L157.338 59.1751L157.268 59.2455L104.739 111.627C-35.0449 251.019 -35.0449 477.826 104.739 617.222L145.021 657.387C212.735 724.911 302.765 762.1 398.526 762.1Z" fill="white" stroke="white" stroke-width="0.2"/>
<path d="M398.526 710.44H398.767L398.763 710.436C480.593 710.373 557.521 678.565 615.393 620.855L615.464 620.784L615.393 620.714L614.8 620.122L614.729 620.052L614.659 620.122C556.923 677.691 480.167 709.397 398.522 709.397C316.878 709.397 240.117 677.691 182.386 620.122L142.104 579.957C22.9287 461.112 22.9287 267.738 142.104 148.892L290.75 0.662337L290.821 0.591528L290.75 0.520718L290.157 -0.0708092L290.086 -0.141225L290.016 -0.0708088L141.374 148.159C21.7877 267.41 21.7877 461.444 141.374 580.694L181.656 620.859C239.584 678.625 316.602 710.44 398.526 710.44Z" fill="white" stroke="white" stroke-width="0.2"/>
<path d="M398.527 658.776H398.857L398.844 658.767C466.804 658.682 530.689 632.249 578.754 584.319L726.311 437.176L726.382 437.105L726.311 437.034L725.718 436.443L725.647 436.372L725.577 436.443L578.02 583.586C530.074 631.397 466.322 657.728 398.518 657.728C330.715 657.728 266.966 631.397 219.017 583.586L178.734 543.421C79.7572 444.721 79.7572 284.12 178.734 185.42L344.066 20.5561L344.137 20.4853L344.066 20.4145L343.473 19.823L343.402 19.7526L343.332 19.823L178.004 184.691C78.6205 283.796 78.6205 445.053 178.004 544.162L218.286 584.328C266.433 632.335 330.443 658.776 398.527 658.776Z" fill="white" stroke="white" stroke-width="0.2"/>
<path d="M347.469 88.9058L347.399 88.8353L347.328 88.9058L214.643 221.219C135.457 300.183 135.457 428.666 214.643 507.63L254.921 547.795C293.278 586.045 344.28 607.112 398.526 607.112C452.773 607.112 503.775 586.045 542.132 547.795L740.783 349.701L740.854 349.63L740.783 349.559L740.19 348.968L740.119 348.897L740.049 348.968L541.398 547.062C503.234 585.115 452.497 606.073 398.526 606.073C344.556 606.073 293.819 585.111 255.655 547.058L215.377 506.893C136.602 428.335 136.602 300.511 215.377 221.952L348.062 89.6389L348.133 89.5681L348.062 89.4973L347.469 88.9058Z" fill="white" stroke="white" stroke-width="0.2"/>
<path d="M398.526 555.452H398.626V555.447C438.994 555.421 476.945 539.732 505.497 511.263L752.07 265.381L752.141 265.31L752.07 265.24L751.477 264.648L751.407 264.578L751.336 264.648L504.763 510.53C476.384 538.829 438.656 554.413 398.526 554.413C358.397 554.413 320.668 538.829 292.29 510.53L252.012 470.365C193.435 411.952 193.435 316.901 252.012 258.488L446.359 64.6899L446.43 64.6191L446.359 64.5483L445.766 63.9568L445.695 63.8864L445.625 63.9568L251.277 257.755C192.294 316.574 192.294 412.28 251.277 471.103L291.555 511.268C320.127 539.759 358.117 555.452 398.526 555.452Z" fill="white" stroke="white" stroke-width="0.2"/>
<path d="M398.527 503.787L398.528 503.783C425.097 503.781 450.07 493.463 468.859 474.731L734.654 209.681L734.725 209.61L734.654 209.54L734.061 208.948L733.99 208.878L733.919 208.948L468.124 473.998C449.535 492.539 424.815 502.748 398.522 502.748C372.23 502.748 347.514 492.539 328.921 473.998L288.643 433.833C250.263 395.561 250.263 333.288 288.643 295.016L399.569 184.405L399.64 184.334L399.569 184.263L398.976 183.672L398.905 183.601L398.835 183.672L287.908 294.283C249.122 332.956 249.122 395.889 287.908 434.566L328.186 474.731C346.977 493.469 371.958 503.787 398.527 503.787Z" fill="white" stroke="white" stroke-width="0.2"/>
<path d="M398.527 452.102H398.688L398.684 452.093C410.835 452.053 422.977 447.42 432.228 438.195L739.008 132.275L739.079 132.204L739.008 132.133L738.415 131.542L738.344 131.471L738.274 131.542L431.494 437.462C413.316 455.588 383.733 455.588 365.555 437.462L325.273 397.293L325.203 397.363L325.273 397.293C316.466 388.514 311.617 376.835 311.617 364.418C311.617 352.002 316.466 340.327 325.273 331.544L472.468 184.761L472.539 184.691L472.468 184.62L471.875 184.028L471.805 183.958L471.734 184.028L324.539 330.811C315.534 339.791 310.576 351.726 310.576 364.423C310.576 377.119 315.534 389.059 324.539 398.034L364.821 438.204C374.113 447.469 386.322 452.102 398.527 452.102Z" fill="white" stroke="white" stroke-width="0.2"/>
</g>
<defs>
<clipPath id="clip0_339_606">
<rect width="752" height="762" fill="white"/>
</clipPath>
</defs>
</svg>
