<svg width="152" height="118" viewBox="0 0 152 118" fill="none" xmlns="http://www.w3.org/2000/svg">
<g clip-path="url(#clip0_48_1086)">
<path d="M18.9133 86.1844V85.6915H19.4958C23.3043 85.6915 23.7076 85.2882 23.7076 83.6752V57.8265C23.7076 56.2135 23.0355 55.8103 19.4958 55.8103H18.9133V55.3174H32.4896V55.8103H31.7279C28.1882 55.8103 27.6057 56.2135 27.6057 57.8713V70.5067H41.9392V57.8713C41.9392 56.2135 41.2223 55.8103 37.8171 55.8103H37.0554V55.3174H50.6316V55.8103H50.0491C46.3302 55.8103 45.8374 56.2135 45.8374 57.8265V83.6752C45.8374 85.2882 46.1062 85.6915 50.0491 85.6915H50.6316V86.1844H37.0554V85.6915H37.8171C41.7152 85.6915 41.9392 85.2882 41.9392 83.6304V71.0444H27.6057V83.6304C27.6057 85.2882 28.233 85.6915 31.7279 85.6915H32.4896V86.1844H18.9133Z" fill="white"/>
<path d="M53.9069 75.1219C53.8621 75.6147 53.8621 76.018 53.8621 76.8693C53.8621 84.1279 56.9089 85.6468 59.6421 85.6468C62.3753 85.6468 64.3019 84.3923 65.9149 81.7935L66.2734 82.0175C64.8844 84.7059 62.7337 86.6774 59.0148 86.6774C53.9069 86.6774 50.2776 82.7792 50.2776 76.9992C50.2776 71.2192 54.3998 67.1016 58.6563 67.1016C63.8091 67.1016 65.9149 70.7309 66.363 75.1219H53.9069ZM53.9517 74.5394H62.6441C62.2856 70.462 61.3895 67.6392 58.6115 67.6392C55.8336 67.6392 54.3998 69.5211 53.9517 74.5394Z" fill="white"/>
<path d="M73.1735 86.678C70.7988 86.678 68.4241 85.0649 68.4241 82.0629C68.4241 77.4031 72.5014 76.5966 79.5315 75.4764V71.3542C79.5315 68.7555 78.725 67.6353 75.2749 67.6353C73.3931 67.6353 71.9145 68.4418 71.9593 69.0243C72.0937 70.3685 73.7067 71.2646 73.7067 72.6088C73.7067 73.5497 72.9898 74.3114 71.9593 74.3114C70.5255 74.3114 69.6742 72.9673 69.6742 71.4439C69.6742 69.4724 71.2872 67.0977 75.9918 67.0977C80.6965 67.0977 82.668 69.2035 82.668 72.6536V81.7941C82.668 83.8552 83.4297 84.4376 84.281 84.4376C85.7148 84.4376 86.3421 83.6759 86.4765 80.3155H86.9245C87.0142 84.6169 85.5804 86.4987 83.2056 86.4987C80.8309 86.4987 79.9348 84.7065 79.6211 82.6454C78.7698 84.124 77.1568 86.678 73.169 86.678H73.1735ZM75.0106 85.1545C77.9678 85.1545 79.536 83.0038 79.536 80.2259V75.9245C72.9495 76.955 71.6501 78.4336 71.6501 80.9428C71.6501 83.6759 73.1287 85.1545 75.0106 85.1545Z" fill="white"/>
<path d="M86.8395 86.1842V85.7362H87.198C89.7967 85.7362 90.2 85.3329 90.2 83.9439V57.1543C90.2 55.5861 89.4831 55.3621 86.6155 55.4069V54.9588L93.3364 54.5107V83.9887C93.3364 85.2433 93.7845 85.7362 95.6215 85.7362H97.0105V86.1842H86.8395Z" fill="white"/>
<path d="M105.524 86.7225C103.866 86.7225 100.46 85.6471 100.46 81.973V68.1324H97.0552V67.5051H100.46V60.0225H103.597V67.5051H109.018V68.1324H103.597V81.749C103.597 84.6614 104.851 85.4679 106.644 85.4679C108.974 85.4679 110.139 84.1685 110.139 81.0769H110.631C110.587 84.6166 109.063 86.7225 105.524 86.7225Z" fill="white"/>
<path d="M117.483 71.1785C118.468 69.3862 120.126 67.1011 123.621 67.1011C126.847 67.1011 129.535 69.2518 129.535 72.3434V84.1723C129.535 85.2028 129.939 85.7405 131.82 85.7405H132.985V86.1885H123.128V85.7405H123.487C126.13 85.7405 126.399 85.3372 126.399 83.9482V72.0791C126.399 69.2115 125.234 68.3154 122.994 68.3154C119.364 68.3154 117.483 71.3174 117.483 72.8408V84.1767C117.483 85.5657 117.796 85.745 120.126 85.745H120.753V86.193H111.21V85.745H111.344C113.853 85.745 114.346 85.3417 114.346 83.9527V57.3423C114.346 55.9533 114.122 55.326 110.941 55.4157V54.9676L117.483 54.5195V71.183V71.1785Z" fill="white"/>
<path d="M40.5099 117.549V104.999H49.1709V107.132H42.9115V110.537H47.7147V112.688H42.9115V117.545H40.5099V117.549Z" fill="white"/>
<path d="M57.8991 117.764C54.5655 117.764 52.267 115.254 52.267 111.289C52.267 107.324 54.561 104.783 57.9125 104.783C61.264 104.783 63.5447 107.292 63.5447 111.258C63.5447 115.223 61.2327 117.764 57.8991 117.764ZM57.8991 106.862C55.9993 106.862 54.7268 108.529 54.7268 111.253C54.7268 113.977 56.0172 115.68 57.917 115.68C59.8168 115.68 61.0893 114.013 61.0893 111.289C61.0893 108.565 59.7989 106.862 57.8991 106.862Z" fill="white"/>
<path d="M70.2612 117.549H67.8596V104.999H72.4478C75.7097 104.999 77.2868 106.307 77.2868 108.655C77.2868 111.003 75.6559 111.971 74.0608 112.419C74.8315 112.724 75.2616 113.136 75.8889 114.104L78.3263 117.545H75.4767L73.4514 114.516C72.8062 113.584 72.2148 113.225 71.1574 113.225H70.2612V117.545V117.549ZM71.928 111.146C73.7023 111.146 74.8315 110.358 74.8315 108.978C74.8315 107.759 74.0429 107.096 72.3044 107.096H70.2612V111.146H71.928Z" fill="white"/>
<path d="M86.732 117.746C83.7747 117.746 81.7495 116.133 81.7495 112.638V104.999H84.169V112.728C84.169 114.735 85.2623 115.685 86.7678 115.685C88.2733 115.685 89.3666 114.735 89.3666 112.746V104.999H91.7502V112.638C91.7502 116.133 89.7071 117.746 86.732 117.746Z" fill="white"/>
<path d="M107.688 107.902L104.48 117.567H102.132L98.9415 107.867L98.4935 117.549H96.2352L96.8804 104.999H100.25L103.333 114.484L106.433 104.999H109.856L110.502 117.549H108.118L107.688 107.902Z" fill="white"/>
<path d="M142.578 39.7432H8.15979V40.3032H142.578V39.7432Z" fill="white"/>
<path d="M79.1327 25.7277C77.793 25.7277 76.991 25.1363 76.3995 24.7106C76.0769 24.4418 75.8081 24.2805 75.5437 24.2805C75.1136 24.2805 74.6342 24.388 74.3116 25.6202H73.8814V17.1518H74.4191C74.8492 21.9237 76.6146 24.9212 79.0834 24.9212C80.7457 24.9212 81.8704 23.4202 81.8704 20.687C81.8704 17.9538 79.9392 15.8659 77.905 13.7734C75.8171 11.5779 73.6171 9.32417 73.6171 6.0578C73.6708 2.63012 75.4407 0 78.5457 0C79.7779 0 80.4231 0.483907 80.9026 0.855798C81.2252 1.12464 81.494 1.28594 81.8121 1.28594C82.296 1.28594 82.6141 0.909566 82.8292 0.107535H83.2594V8.5759H82.7217C82.2915 4.34172 81.1669 0.806511 78.4875 0.806511C76.6639 0.806511 76.292 2.63012 76.292 3.91606C76.292 6.43417 78.0081 8.20401 79.881 10.0769C82.0765 12.3262 84.4915 14.795 84.4915 18.9709C84.5453 22.8825 82.4036 25.7232 79.1327 25.7232V25.7277Z" fill="white"/>
<path d="M53.2437 3.53998C52.7597 1.34447 52.6522 1.02187 51.9577 0.806801L51.42 0.645498V0.112305H57.9573V0.649979L57.4196 0.757514C56.2412 1.02635 56.3487 2.20475 56.6713 3.8133L59.5658 18.2812L61.7075 6.75706L60.9593 2.79171C60.6367 1.39824 60.5291 0.968103 59.8346 0.753033L59.3507 0.645498V0.112305H66.103V0.649979L65.301 0.811281C64.0688 1.02635 64.2839 2.36606 64.5527 3.8133L67.3397 18.2812L70.1266 4.61533C70.6643 1.77461 70.3955 1.08012 69.2708 0.865049L68.5226 0.703746V0.166072H73.1869V0.703746L72.6492 0.865049C71.9009 1.13389 71.7396 1.82838 71.202 4.24344L66.6989 25.7325H65.7356L62.2542 8.95705L59.1446 25.7325H57.9125L53.2481 3.54446L53.2437 3.53998Z" fill="white"/>
<path d="M90.0656 25.728C93.1214 25.728 95.1018 23.64 95.1018 19.724V2.41534C95.1018 1.39824 95.3706 1.07564 96.1189 0.860568L96.9209 0.645498V0.112305H89.631V0.649979L90.5405 0.865049C91.3426 1.02635 91.6652 1.34896 91.6652 2.36606V20.2661C91.6652 22.251 91.6652 24.8767 89.5772 24.8767C88.3988 24.8767 87.4892 23.8596 87.5385 23.1606C87.5923 22.6767 87.9687 22.4123 88.4481 22.0897C89.0395 21.7134 89.6802 21.2877 89.734 20.2661C89.8415 18.9802 89.0395 18.3887 88.233 18.2812C87.1084 18.1199 85.6611 19.0832 85.6611 21.0144C85.6611 23.4787 87.2697 25.7325 90.0566 25.7325L90.0656 25.728Z" fill="white"/>
</g>
<defs>
<clipPath id="clip0_48_1086">
<rect width="151.111" height="117.744" fill="white"/>
</clipPath>
</defs>
</svg>
