<svg width="25" height="25" viewBox="0 0 25 25" fill="none" xmlns="http://www.w3.org/2000/svg">
<path d="M22.8516 7.8125H2.14844C1.82617 7.8125 1.5625 7.54883 1.5625 7.22656V5.46875C1.5625 4.1748 2.6123 3.125 3.90625 3.125H6.25V0.585938C6.25 0.263672 6.51367 0 6.83594 0H8.78906C9.11133 0 9.375 0.263672 9.375 0.585938V3.125H15.625V0.585938C15.625 0.263672 15.8887 0 16.2109 0H18.1641C18.4863 0 18.75 0.263672 18.75 0.585938V3.125H21.0938C22.3877 3.125 23.4375 4.1748 23.4375 5.46875V7.22656C23.4375 7.54883 23.1738 7.8125 22.8516 7.8125ZM2.14844 9.375H22.8516C23.1738 9.375 23.4375 9.63867 23.4375 9.96094V22.6562C23.4375 23.9502 22.3877 25 21.0938 25H3.90625C2.6123 25 1.5625 23.9502 1.5625 22.6562V9.96094C1.5625 9.63867 1.82617 9.375 2.14844 9.375ZM17.5781 16.2109C17.5781 15.8887 17.3145 15.625 16.9922 15.625H14.0625V12.6953C14.0625 12.373 13.7988 12.1094 13.4766 12.1094H11.5234C11.2012 12.1094 10.9375 12.373 10.9375 12.6953V15.625H8.00781C7.68555 15.625 7.42188 15.8887 7.42188 16.2109V18.1641C7.42188 18.4863 7.68555 18.75 8.00781 18.75H10.9375V21.6797C10.9375 22.002 11.2012 22.2656 11.5234 22.2656H13.4766C13.7988 22.2656 14.0625 22.002 14.0625 21.6797V18.75H16.9922C17.3145 18.75 17.5781 18.4863 17.5781 18.1641V16.2109Z" fill="#000"/>
</svg>
