<svg width="179" height="74" viewBox="0 0 179 74" fill="none" xmlns="http://www.w3.org/2000/svg">
<path d="M69.9507 38.8005V38.3309H70.5052C74.1407 38.3309 74.5252 37.9464 74.5252 36.4081V11.7244C74.5252 10.1861 73.8858 9.80156 70.5052 9.80156H69.9507V9.33203H82.9096V9.80156H82.1808C78.8002 9.80156 78.2457 10.1861 78.2457 11.7691V23.8337H91.9335V11.7691C91.9335 10.1861 91.2493 9.80156 87.9984 9.80156H87.2695V9.33203H100.229V9.80156H99.674C96.1235 9.80156 95.654 10.1861 95.654 11.7244V36.4036C95.654 37.9419 95.9088 38.3265 99.674 38.3265H100.229V38.796H87.2695V38.3265H87.9984C91.7189 38.3265 91.9335 37.9419 91.9335 36.3589V24.339H78.2457V36.3589C78.2457 37.9419 78.8449 38.3265 82.1808 38.3265H82.9096V38.796H69.9507V38.8005Z" fill="black"/>
<path d="M103.363 28.2376C103.318 28.7071 103.318 29.0917 103.318 29.9055C103.318 36.8366 106.229 38.2899 108.836 38.2899C111.443 38.2899 113.286 37.0915 114.824 34.6097L115.164 34.8244C113.836 37.3911 111.783 39.2737 108.233 39.2737C103.359 39.2737 99.8931 35.5533 99.8931 30.0352C99.8931 24.5171 103.828 20.582 107.893 20.582C112.812 20.582 114.824 24.0476 115.249 28.2376H103.359H103.363ZM103.408 27.6831H111.707C111.363 23.7927 110.509 21.0963 107.857 21.0963C105.205 21.0963 103.837 22.8939 103.408 27.6831Z" fill="black"/>
<path d="M121.755 39.2698C119.488 39.2698 117.221 37.7271 117.221 34.8652C117.221 30.4158 121.111 29.6467 127.828 28.578V24.6429C127.828 22.1611 127.059 21.0924 123.763 21.0924C121.965 21.0924 120.557 21.8615 120.597 22.416C120.727 23.6994 122.265 24.5535 122.265 25.8368C122.265 26.7356 121.581 27.4645 120.597 27.4645C119.229 27.4645 118.415 26.1812 118.415 24.7279C118.415 22.8453 119.953 20.5781 124.447 20.5781C128.941 20.5781 130.819 22.5904 130.819 25.8815V34.6103C130.819 36.5778 131.548 37.1323 132.358 37.1323C133.726 37.1323 134.325 36.4034 134.455 33.1972H134.884C134.969 37.3022 133.601 39.0999 131.334 39.0999C129.066 39.0999 128.212 37.3872 127.913 35.4197C127.099 36.8327 125.561 39.2698 121.755 39.2698ZM123.508 37.8165C126.33 37.8165 127.828 35.764 127.828 33.1123V29.0073C121.541 29.991 120.297 31.4041 120.297 33.7964C120.297 36.4034 121.711 37.8165 123.504 37.8165H123.508Z" fill="black"/>
<path d="M134.808 38.8006V38.3714H135.148C137.63 38.3714 138.014 37.9868 138.014 36.6587V11.0851C138.014 9.58708 137.33 9.37244 134.594 9.41716V8.98788L141.01 8.55859V36.7034C141.01 37.9018 141.44 38.3714 143.193 38.3714H144.521V38.8006H134.813H134.808Z" fill="black"/>
<path d="M152.646 39.3134C151.063 39.3134 147.812 38.2849 147.812 34.7791V21.5608H144.561V20.9616H147.812V13.8203H150.808V20.9616H155.981V21.5608H150.808V34.5645C150.808 37.3459 152.006 38.115 153.714 38.115C155.937 38.115 157.05 36.8763 157.05 33.925H157.52C157.475 37.3056 156.022 39.3134 152.646 39.3134Z" fill="black"/>
<path d="M164.066 24.4733C165.005 22.7607 166.588 20.5785 169.924 20.5785C173.005 20.5785 175.572 22.631 175.572 25.5823V36.8733C175.572 37.8571 175.956 38.3714 177.754 38.3714H178.868V38.8006H169.455V38.3714H169.799C172.321 38.3714 172.58 37.9868 172.58 36.6587V25.323C172.58 22.5863 171.467 21.7277 169.329 21.7277C165.864 21.7277 164.066 24.5941 164.066 26.0474V36.8689C164.066 38.197 164.366 38.3669 166.588 38.3669H167.187V38.7962H158.079V38.3669H158.208C160.605 38.3669 161.075 37.9823 161.075 36.6542V11.255C161.075 9.9314 160.86 9.3322 157.824 9.41716V8.98788L164.071 8.55859V24.4733H164.066Z" fill="black"/>
<path d="M71.6187 68.7478V56.7637H79.8868V58.7983H73.9126V62.0537H78.5006V64.1062H73.9126V68.7478H71.6187Z" fill="black"/>
<path d="M88.2221 68.9522C85.0383 68.9522 82.8472 66.5553 82.8472 62.7723C82.8472 58.9892 85.0383 56.5566 88.24 56.5566C91.4418 56.5566 93.615 58.9535 93.615 62.7365C93.615 66.5196 91.406 68.9522 88.2221 68.9522ZM88.2221 58.5421C86.4066 58.5421 85.1903 60.134 85.1903 62.7365C85.1903 65.339 86.4245 66.9667 88.2356 66.9667C90.0466 66.9667 91.2674 65.3748 91.2674 62.7723C91.2674 60.1698 90.0332 58.5421 88.2221 58.5421Z" fill="black"/>
<path d="M100.027 68.7478H97.7332V56.7637H102.115C105.232 56.7637 106.739 58.0113 106.739 60.2561C106.739 62.5008 105.183 63.422 103.658 63.8513C104.396 64.142 104.807 64.5355 105.407 65.4611L107.736 68.7478H105.013L103.077 65.8546C102.46 64.9648 101.896 64.6204 100.886 64.6204H100.032V68.7478H100.027ZM101.619 62.635C103.314 62.635 104.392 61.8838 104.392 60.5646C104.392 59.402 103.64 58.767 101.977 58.767H100.027V62.635H101.619Z" fill="black"/>
<path d="M115.754 68.9395C112.928 68.9395 110.996 67.3968 110.996 64.0609V56.7676H113.308V64.1459C113.308 66.0642 114.35 66.972 115.79 66.972C117.23 66.972 118.272 66.0642 118.272 64.1638V56.7676H120.548V64.0609C120.548 67.4013 118.598 68.9395 115.754 68.9395Z" fill="black"/>
<path d="M135.761 59.54L132.697 68.7696H130.453L127.407 59.5087L126.978 68.7517H124.823L125.44 56.7676H128.659L131.606 65.8227L134.567 56.7676H137.835L138.452 68.7517H136.176L135.765 59.54H135.761Z" fill="black"/>
<path d="M57.4477 2.44531H56.9111V70.8979H57.4477V2.44531Z" fill="#221F1F"/>
<path d="M26.052 39.0013C24.791 39.0013 24.0353 38.4468 23.4808 38.0443C23.1767 37.7939 22.9263 37.6419 22.6759 37.6419C22.2734 37.6419 21.8173 37.7447 21.5177 38.9029H21.1152V30.9433H21.6205C22.023 35.4284 23.6865 38.25 26.0028 38.25C27.5634 38.25 28.6232 36.837 28.6232 34.2702C28.6232 31.7035 26.8077 29.7359 24.8938 27.7684C22.9307 25.7025 20.8604 23.5873 20.8604 20.5108C20.9095 17.2867 22.573 14.8184 25.4975 14.8184C26.6557 14.8184 27.2593 15.27 27.7155 15.6233C28.0195 15.8737 28.2699 16.0257 28.574 16.0257C29.0257 16.0257 29.3297 15.6725 29.531 14.9167H29.9334V22.8763H29.4281C29.0257 18.8965 27.9659 15.5696 25.4483 15.5696C23.7356 15.5696 23.3824 17.2823 23.3824 18.4941C23.3824 20.8641 24.9967 22.5276 26.7585 24.2894C28.8244 26.4045 31.0916 28.7253 31.0916 32.6559C31.1408 36.3361 29.1285 39.0057 26.052 39.0057V39.0013Z" fill="black"/>
<path d="M1.71266 18.1368C1.26102 16.0708 1.15817 15.7668 0.505301 15.5655L0 15.4135V14.9082H6.14857V15.4135L5.64327 15.5164C4.53429 15.7668 4.63714 16.8757 4.93675 18.3872L7.66001 31.9945L9.67674 21.1596L8.97021 17.4302C8.66614 16.12 8.56776 15.7176 7.91042 15.5164L7.45878 15.4135V14.9082H13.8086V15.4135L13.0529 15.5655C11.8947 15.7668 12.0959 17.0278 12.3463 18.3872L14.9667 31.9945L17.5872 19.1429C18.0925 16.4733 17.8376 15.816 16.7823 15.6147L16.0757 15.4627V14.9574H20.458V15.4627L19.9527 15.6147C19.2462 15.8651 19.0941 16.5225 18.5933 18.7896L14.3586 38.9972H13.4508L10.1776 23.2255L7.25308 38.9972H6.09491L1.71266 18.1368Z" fill="black"/>
<path d="M36.3325 39.0011C39.2034 39.0011 41.068 37.038 41.068 33.3578V17.0809C41.068 16.1239 41.3185 15.8199 42.025 15.6186L42.7807 15.4174V14.9121H35.9256V15.4174L36.7842 15.6186C37.5399 15.7707 37.844 16.0703 37.844 17.0317V33.8631C37.844 35.7278 37.844 38.1962 35.8809 38.1962C34.7719 38.1962 33.9178 37.2393 33.967 36.5819C34.0162 36.1303 34.3695 35.8754 34.8256 35.5758C35.3801 35.2225 35.9837 34.8201 36.0329 33.8631C36.1358 32.6558 35.3801 32.1013 34.6199 31.9984C33.5601 31.8464 32.2007 32.7542 32.2007 34.5697C32.2007 36.886 33.7121 39.0056 36.3325 39.0056V39.0011Z" fill="black"/>
</svg>
